<?xml version="1.0" encoding="iso-8859-1"?>
<!-- Generator: Adobe Illustrator 19.0.0, SVG Export Plug-In . SVG Version: 6.00 Build 0)  -->
<svg xmlns="http://www.w3.org/2000/svg" xmlns:xlink="http://www.w3.org/1999/xlink" version="1.1" id="Layer_1" x="0px" y="0px" viewBox="0 0 502 502" style="enable-background:new 0 0 502 502;" xml:space="preserve" width="512" height="512">
<g>
	<g>
		<path style="fill:#8f6433;" d="M379.756,227.27c-11.545-19.574-20.936-40.051-27.6-61.289c-15.592-49.691-55-84.97-101.156-84.97    c-46.156,0-85.564,35.279-101.156,84.97c-6.664,21.238-16.055,41.715-27.6,61.289c-15.87,26.906-25.103,59.085-25.103,93.665    C97.142,415.412,166.026,492,251,492s153.859-76.588,153.859-171.064C404.859,286.356,395.627,254.177,379.756,227.27z"/>
		<path style="fill:#39B54A;" d="M251,82.447c0-20.996,17.021-38.017,38.017-38.017c20.996,0,73.687,38.017,73.687,38.017    s-52.691,38.017-73.687,38.017C268.021,120.464,251,103.443,251,82.447z"/>
		<path style="fill:#8f6433;" d="M318.784,327.401c0,43.972-30.348,73.164-67.784,73.164s-67.784-29.191-67.784-73.164    s30.348-86.075,67.784-86.075S318.784,283.428,318.784,327.401z"/>
	</g>
	
	
</g>















</svg>
